<svg xmlns="http://www.w3.org/2000/svg" width="91" height="91" viewBox="0 0 91 91">
  <g id="Group_1040" data-name="Group 1040" transform="translate(-447 -2481)">
    <circle id="Ellipse_27" data-name="Ellipse 27" cx="45.5" cy="45.5" r="45.5" transform="translate(447 2481)" fill="#49d6cb"/>
    <g id="Group_1028" data-name="Group 1028" transform="translate(-30.96 2112.633)">
      <g id="Group_1022" data-name="Group 1022" transform="translate(502.143 398.444)">
        <path id="Path_3210" data-name="Path 3210" d="M508.753,513.219a1.022,1.022,0,0,0,1.44-.015L515,508.345a1.022,1.022,0,0,0-.014-1.452l-3.269-3.19a4.447,4.447,0,0,0-6.188,6.389Zm-1.854-7.99a2.4,2.4,0,0,1,3.392-.058l2.528,2.467-3.368,3.406-2.5-2.422A2.4,2.4,0,0,1,506.9,505.229Z" transform="translate(-504.18 -502.451)" fill="#fff"/>
      </g>
      <g id="Group_1023" data-name="Group 1023" transform="translate(501.96 398.778)">
        <path id="Path_3211" data-name="Path 3211" d="M544.273,504.809a.977.977,0,0,0-.2-1.221.988.988,0,0,0-1.27-.293c-.477.259-11.744,6.419-17.913,12.28-.639.607-1.249,1.214-1.833,1.815l-7.357-7.084a1.006,1.006,0,0,0-1.415.023l-4.651,4.779a.991.991,0,0,0,.024,1.407l7.734,7.432c-.356.465-.649.859-.884,1.183a.984.984,0,0,0-1.181.285l-5.139,6.4c-.022.029-.031.064-.051.1a7.78,7.78,0,0,0-4.056,1.853c-2.581,2.417-4.031,8.263-4.091,8.511a.988.988,0,0,0,.244.916,1.006,1.006,0,0,0,.729.313.982.982,0,0,0,.177-.016c.252-.045,6.207-1.131,8.788-3.548a7.686,7.686,0,0,0,2.079-3.9.736.736,0,0,0,.123-.06l6.728-4.716a.994.994,0,0,0,.419-.713c0-.038-.013-.073-.013-.11.416-.276.983-.66,1.664-1.144l11.162,10.748a.962.962,0,0,0,.528.248l8.169,3.4a1,1,0,0,0,1.1-.226,1,1,0,0,0,.191-1.106l-3.686-8.01a.981.981,0,0,0-.266-.518l-10.4-10.014c.512-.464,1.025-.941,1.539-1.442C537.379,516.444,544,505.281,544.273,504.809Zm-32.506,10.968,3.26-3.349,6.659,6.411q-.463.5-.895.992l-2.961-2.842a1,1,0,0,0-1.412.025.991.991,0,0,0,.023,1.407l3.043,2.921q-.451.538-.852,1.033Zm-1.213,22.71c-1.341,1.256-4.184,2.185-6.171,2.685.623-1.942,1.727-4.707,3.068-5.964a6.149,6.149,0,0,1,3.443-1.4l1.276,1.348A6.091,6.091,0,0,1,510.554,538.487Zm3.129-4.638-1.391-1.47,3.876-4.826,2.592,2.738Zm25.729,6.277.979-1,.8,1.748Zm-.885-5.071c0,.008,0,.017.006.025l.965,2.1-2.067,2.123-2.139-.891c-.008,0-.018,0-.025,0l-10.709-10.312c.346-.26.7-.532,1.074-.824l9.707,9.345a1,1,0,1,0,1.391-1.43l-9.531-9.176q.507-.42,1.031-.868ZM520.1,528.807l-2.149-2.27a71.606,71.606,0,0,1,8.317-9.524c4.048-3.846,10.579-7.945,14.412-10.209-2.414,3.778-6.792,10.241-10.813,14.143A71.393,71.393,0,0,1,520.1,528.807Z" transform="translate(-501.96 -503.175)" fill="#fff"/>
      </g>
      <g id="Group_1024" data-name="Group 1024" transform="translate(516.84 395.381)">
        <path id="Path_3212" data-name="Path 3212" d="M688.572,467.65a1.021,1.021,0,0,0,1.333-.562,4.756,4.756,0,0,1,1.209-1.727,3.035,3.035,0,0,0-.033.318,3.2,3.2,0,1,0,6.4,0,2.783,2.783,0,0,0-.032-.317,4.741,4.741,0,0,1,1.21,1.726,1.021,1.021,0,0,0,.946.638,1,1,0,0,0,.386-.076,1.021,1.021,0,0,0,.562-1.333,6.767,6.767,0,0,0-12.54,0A1.022,1.022,0,0,0,688.572,467.65Zm5.707-.82a1.152,1.152,0,1,1,1.152-1.152A1.154,1.154,0,0,1,694.279,466.83Z" transform="translate(-687.933 -462.096)" fill="#fff"/>
      </g>
      <g id="Group_1025" data-name="Group 1025" transform="translate(522.162 389.367)">
        <path id="Path_3213" data-name="Path 3213" d="M753.318,392.822a1.023,1.023,0,0,0,1.024-1.024v-1.408a1.024,1.024,0,0,0-2.047,0V391.8A1.023,1.023,0,0,0,753.318,392.822Z" transform="translate(-752.295 -389.367)" fill="#fff"/>
      </g>
      <g id="Group_1026" data-name="Group 1026" transform="translate(515.237 392.004)">
        <path id="Path_3214" data-name="Path 3214" d="M667.882,424a1.022,1.022,0,0,0,1.446,0,1.025,1.025,0,0,0,0-1.448l-1-1a1.023,1.023,0,1,0-1.447,1.447Z" transform="translate(-666.585 -421.26)" fill="#fff"/>
      </g>
      <g id="Group_1027" data-name="Group 1027" transform="translate(528.091 392.004)">
        <path id="Path_3215" data-name="Path 3215" d="M826.991,424.3a1.02,1.02,0,0,0,.724-.3l1-1a1.024,1.024,0,1,0-1.447-1.447l-1,1a1.024,1.024,0,0,0,.724,1.747Z" transform="translate(-825.967 -421.26)" fill="#fff"/>
      </g>
    </g>
  </g>
</svg>
